<?xml version="1.0" standalone="no"?><!DOCTYPE svg PUBLIC "-//W3C//DTD SVG 1.1//EN" "http://www.w3.org/Graphics/SVG/1.1/DTD/svg11.dtd"><svg t="1772087077304" class="icon" viewBox="0 0 1024 1024" version="1.1" xmlns="http://www.w3.org/2000/svg" p-id="5733" xmlns:xlink="http://www.w3.org/1999/xlink" width="200" height="200"><path d="M384 759.466667H213.333333c-64 0-119.466667-51.2-119.466666-119.466667V128c0-17.066667 12.8-34.133333 34.133333-34.133333s34.133333 12.8 34.133333 34.133333v512c0 29.866667 25.6 51.2 51.2 51.2h170.666667c17.066667 0 34.133333 12.8 34.133333 34.133333s-12.8 34.133333-34.133333 34.133334z" p-id="5734"></path><path d="M384 332.8H128c-17.066667 0-34.133333-12.8-34.133333-34.133333s12.8-34.133333 34.133333-34.133334h256c17.066667 0 34.133333 12.8 34.133333 34.133334s-12.8 34.133333-34.133333 34.133333zM832 460.8h-256c-51.2 0-93.866667-42.666667-93.866667-93.866667V149.333333c0-51.2 42.666667-93.866667 93.866667-93.866666h81.066667c25.6 0 46.933333 12.8 59.733333 34.133333l17.066667 25.6s4.266667 4.266667 8.533333 4.266667h89.6c51.2 0 93.866667 42.666667 93.866667 93.866666v149.333334c0 51.2-42.666667 93.866667-93.866667 93.866666z m-256-341.333333c-17.066667 0-34.133333 12.8-34.133333 34.133333v213.333333c0 17.066667 12.8 34.133333 34.133333 34.133334h256c17.066667 0 34.133333-12.8 34.133333-34.133334V217.6c0-17.066667-12.8-34.133333-34.133333-34.133333h-89.6c-25.6 0-46.933333-12.8-59.733333-34.133334l-17.066667-25.6s-4.266667-4.266667-8.533333-4.266666h-81.066667zM832 930.133333h-256c-51.2 0-93.866667-42.666667-93.866667-93.866666v-213.333334c0-51.2 42.666667-93.866667 93.866667-93.866666h81.066667c25.6 0 46.933333 12.8 59.733333 34.133333l17.066667 25.6s4.266667 4.266667 8.533333 4.266667h89.6c51.2 0 93.866667 42.666667 93.866667 93.866666v149.333334c0 51.2-42.666667 93.866667-93.866667 93.866666z m-256-341.333333c-17.066667 0-34.133333 12.8-34.133333 34.133333v213.333334c0 17.066667 12.8 34.133333 34.133333 34.133333h256c17.066667 0 34.133333-12.8 34.133333-34.133333v-149.333334c0-17.066667-12.8-34.133333-34.133333-34.133333h-89.6c-25.6 0-46.933333-12.8-59.733333-34.133333l-17.066667-25.6s-4.266667-4.266667-8.533333-4.266667h-81.066667z" p-id="5735"></path></svg>